<svg width="42" height="14" viewBox="0 0 42 14" fill="none" xmlns="http://www.w3.org/2000/svg">
<path d="M6.03407 3.60527C6.29885 2.617 7.70115 2.617 7.96593 3.60527L8.02219 3.81526C8.16513 4.34875 8.71349 4.66535 9.24697 4.52239L9.45695 4.46612C10.4452 4.20128 11.1464 5.41572 10.4229 6.13916L10.2692 6.29288C9.87861 6.6834 9.87861 7.3166 10.2692 7.70712L10.4229 7.86084C11.1464 8.58428 10.4452 9.79872 9.45695 9.53389L9.24697 9.47761C8.71349 9.33465 8.16513 9.65125 8.02219 10.1847L7.96593 10.3947C7.70115 11.383 6.29885 11.383 6.03407 10.3947L5.97781 10.1847C5.83487 9.65125 5.28651 9.33465 4.75303 9.47761L4.54305 9.53389C3.55479 9.79872 2.85363 8.58428 3.57711 7.86084L3.73084 7.70712C4.12139 7.3166 4.12139 6.6834 3.73084 6.29288L3.57711 6.13916C2.85363 5.41572 3.55479 4.20128 4.54305 4.46612L4.75303 4.52239C5.28651 4.66535 5.83487 4.34875 5.97781 3.81526L6.03407 3.60527Z" fill="#3EB6AE"/>
<path d="M20.0341 3.60527C20.2988 2.617 21.7012 2.617 21.9659 3.60527L22.0222 3.81526C22.1651 4.34875 22.7135 4.66535 23.247 4.52239L23.457 4.46612C24.4452 4.20128 25.1464 5.41572 24.4229 6.13916L24.2692 6.29288C23.8786 6.6834 23.8786 7.3166 24.2692 7.70712L24.4229 7.86084C25.1464 8.58428 24.4452 9.79872 23.457 9.53389L23.247 9.47761C22.7135 9.33465 22.1651 9.65125 22.0222 10.1847L21.9659 10.3947C21.7012 11.383 20.2988 11.383 20.0341 10.3947L19.9778 10.1847C19.8349 9.65125 19.2865 9.33465 18.753 9.47761L18.543 9.53389C17.5548 9.79872 16.8536 8.58428 17.5771 7.86084L17.7308 7.70712C18.1214 7.3166 18.1214 6.6834 17.7308 6.29288L17.5771 6.13916C16.8536 5.41572 17.5548 4.20128 18.543 4.46612L18.753 4.52239C19.2865 4.66535 19.8349 4.34875 19.9778 3.81526L20.0341 3.60527Z" fill="#3EB6AE"/>
<path d="M34.0341 3.60527C34.2988 2.617 35.7012 2.617 35.9659 3.60527L36.0222 3.81526C36.1651 4.34875 36.7135 4.66535 37.247 4.52239L37.457 4.46612C38.4452 4.20128 39.1464 5.41572 38.4229 6.13916L38.2692 6.29288C37.8786 6.6834 37.8786 7.3166 38.2692 7.70712L38.4229 7.86084C39.1464 8.58428 38.4452 9.79872 37.457 9.53389L37.247 9.47761C36.7135 9.33465 36.1651 9.65125 36.0222 10.1847L35.9659 10.3947C35.7012 11.383 34.2988 11.383 34.0341 10.3947L33.9778 10.1847C33.8349 9.65125 33.2865 9.33465 32.753 9.47761L32.543 9.53389C31.5548 9.79872 30.8536 8.58428 31.5771 7.86084L31.7308 7.70712C32.1214 7.3166 32.1214 6.6834 31.7308 6.29288L31.5771 6.13916C30.8536 5.41572 31.5548 4.20128 32.543 4.46612L32.753 4.52239C33.2865 4.66535 33.8349 4.34875 33.9778 3.81526L34.0341 3.60527Z" fill="#3EB6AE"/>
</svg>
